<?xml version="1.0" encoding="UTF-8" standalone="no"?>
<svg
   width="92pt"
   height="92pt"
   viewBox="0 0 92.000006 92.000006"
   version="1.1"
   id="svg141"
   sodipodi:docname="icon.svg"
   inkscape:version="1.2.1 (9c6d41e410, 2022-07-14)"
   inkscape:export-filename="icon.png"
   inkscape:export-xdpi="400.69565"
   inkscape:export-ydpi="400.69565"
   xmlns:inkscape="http://www.inkscape.org/namespaces/inkscape"
   xmlns:sodipodi="http://sodipodi.sourceforge.net/DTD/sodipodi-0.dtd"
   xmlns="http://www.w3.org/2000/svg"
   xmlns:svg="http://www.w3.org/2000/svg">
  <sodipodi:namedview
     id="namedview143"
     pagecolor="#ffffff"
     bordercolor="#000000"
     borderopacity="0.25"
     inkscape:showpageshadow="2"
     inkscape:pageopacity="0.0"
     inkscape:pagecheckerboard="0"
     inkscape:deskcolor="#d1d1d1"
     inkscape:document-units="pt"
     showgrid="false"
     inkscape:zoom="4.6346238"
     inkscape:cx="41.535195"
     inkscape:cy="51.460488"
     inkscape:window-width="1920"
     inkscape:window-height="991"
     inkscape:window-x="-9"
     inkscape:window-y="-9"
     inkscape:window-maximized="1"
     inkscape:current-layer="layer3" />
  <defs
     id="defs135">
    <clipPath
       id="a">
      <path
         d="M 0,0.113 H 91.887 V 92 H 0 Z m 0,0"
         id="path132" />
    </clipPath>
  </defs>
  <g
     clip-path="url(#a)"
     id="g139"
     inkscape:label="Git Logo"
     style="display:none">
    <path
       style="display:none;fill:#f03c2e;fill-opacity:1;fill-rule:nonzero;stroke:none"
       d="M 90.156,41.965 50.036,1.848 a 5.918,5.918 0 0 0 -8.372,0 l -8.328,8.332 10.566,10.566 a 7.03,7.03 0 0 1 7.23,1.684 7.034,7.034 0 0 1 1.669,7.277 l 10.187,10.184 a 7.028,7.028 0 0 1 7.278,1.672 7.04,7.04 0 0 1 0,9.957 7.05,7.05 0 0 1 -9.965,0 7.044,7.044 0 0 1 -1.528,-7.66 l -9.5,-9.497 V 59.36 a 7.04,7.04 0 0 1 1.86,11.29 7.04,7.04 0 0 1 -9.957,0 7.04,7.04 0 0 1 0,-9.958 7.06,7.06 0 0 1 2.304,-1.539 V 33.926 A 7.049,7.049 0 0 1 39.66,24.692 L 29.242,14.272 1.73,41.777 a 5.925,5.925 0 0 0 0,8.371 L 41.852,90.27 a 5.925,5.925 0 0 0 8.37,0 L 90.156,50.336 a 5.925,5.925 0 0 0 0,-8.371"
       id="path137" />
  </g>
  <g
     inkscape:groupmode="layer"
     id="layer1"
     inkscape:label="windows color"
     style="display:inline">
    <g
       inkscape:groupmode="layer"
       id="layer2"
       inkscape:label="layout"
       style="display:none">
      <g
         id="g4142">
        <rect
           style="fill:#ff8080;fill-opacity:1;stroke-width:3;stroke-linecap:round;stroke-linejoin:round"
           id="rect458"
           width="44.648396"
           height="44.647999"
           x="0"
           y="2.220446e-16"
           ry="4.7222705" />
        <rect
           style="fill:#8dd35f;fill-opacity:1;stroke-width:3;stroke-linecap:round;stroke-linejoin:round"
           id="rect565"
           width="44.647999"
           height="44.648003"
           x="47.239288"
           y="0.11331543"
           ry="4.722271" />
        <rect
           style="fill:#80b3ff;fill-opacity:1;stroke-width:3;stroke-linecap:round;stroke-linejoin:round"
           id="rect567"
           width="44.647999"
           height="44.648003"
           x="0"
           y="47.351997"
           ry="4.722271" />
        <rect
           style="fill:#ffe680;fill-opacity:1;stroke-width:3;stroke-linecap:round;stroke-linejoin:round"
           id="rect569"
           width="44.647999"
           height="44.648003"
           x="47.239288"
           y="47.352787"
           ry="4.722271" />
      </g>
    </g>
    <g
       inkscape:groupmode="layer"
       id="g4160"
       inkscape:label="merged"
       style="display:inline">
      <path
         id="rect4175"
         style="display:inline;fill:#ff8080;stroke-width:3;stroke-linecap:round;stroke-linejoin:round"
         d="m 31.89749,-31.634397 a 5.918,5.918 0 0 0 -1.129023,3.480291 l 0.0021,11.7812 h 14.942464 a 7.03,7.03 0 0 1 6.302849,-3.922578 7.034,7.034 0 0 1 6.325636,3.966082 l 5.376843,-10e-4 10e-4,-17.744306 -27.031297,10e-4 a 5.918,5.918 0 0 0 -4.79058,2.439311 z m -1.127987,21.048511 -0.001,9.2735262 h 28.227648 c 0.364386,0 0.718303,-0.044819 1.058588,-0.1222245 L 54.733794,-6.7554938 A 7.049,7.049 0 0 1 45.503771,-10.58485 Z m 28.369552,0.04247 4.576169,4.5761687 c 3.17e-4,-0.022676 0.0031,-0.044572 0.0031,-0.067327 v -4.5098777 z"
         transform="rotate(45)" />
      <path
         id="rect4178"
         style="fill:#8dd35f;stroke-width:3;stroke-linecap:round;stroke-linejoin:round"
         d="m 66.309905,-34.07578 v 17.745342 l 6.436467,-0.0021 a 7.028,7.028 0 0 1 6.328744,-3.962975 7.04,7.04 0 0 1 7.040339,7.040339 7.05,7.05 0 0 1 -7.046554,7.0465541 7.044,7.044 0 0 1 -6.496543,-4.3358631 h -6.262453 v 4.6238158 c 0,2.6161355 2.106081,4.7222165 4.722217,4.7222165 H 99.342633 V -28.156177 a 5.925,5.925 0 0 0 -5.919602,-5.919603 z"
         transform="rotate(45)" />
      <path
         id="rect4181"
         style="fill:#80b3ff;stroke-width:3;stroke-linecap:round;stroke-linejoin:round"
         d="m 30.767431,1.3921165 -0.0031,26.9256455 a 5.925,5.925 0 0 0 5.918567,5.918567 l 27.03544,-10e-4 V 6.1132972 c 0,-2.6161355 -2.106081,-4.7222165 -4.722216,-4.7222165 z"
         transform="rotate(45)" />
      <path
         id="rect4184"
         style="display:inline;fill:#ffe680;stroke-width:3;stroke-linecap:round;stroke-linejoin:round"
         d="m 66.454917,4.9656297 c -0.09156,0.3681882 -0.145012,0.7524355 -0.145012,1.1497391 V 34.237365 l 27.114162,-10e-4 a 5.925,5.925 0 0 0 5.918566,-5.918567 V 1.3931523 H 71.075625 l 5.739373,5.739373 a 7.04,7.04 0 0 1 9.298385,6.6674507 7.04,7.04 0 0 1 -7.041374,7.041375 7.04,7.04 0 0 1 -7.041375,-7.041375 7.06,7.06 45 0 1 0.541724,-2.716906 z"
         transform="rotate(45)" />
    </g>
  </g>
  <g
     inkscape:groupmode="layer"
     id="layer3"
     inkscape:label="half-git logo">
    <path
       id="path4237"
       style="display:inline;fill:#f03c2e;fill-opacity:1;fill-rule:nonzero;stroke:none"
       d="M 46.000488 0.18603516 L 46.000488 20.397949 A 7.03 7.03 0 0 1 51.131836 22.429688 A 7.034 7.034 0 0 1 52.800293 29.707031 L 62.988281 39.890625 A 7.028 7.028 0 0 1 70.265625 41.563477 A 7.04 7.04 0 0 1 70.265625 51.52002 A 7.05 7.05 0 0 1 60.300293 51.52002 A 7.044 7.044 0 0 1 58.772461 43.860352 L 49.272949 34.362305 L 49.272949 59.359863 A 7.04 7.04 0 0 1 51.133301 70.649414 A 7.04 7.04 0 0 1 46.000488 72.625488 L 46.000488 91.927734 A 5.925 5.925 0 0 0 50.222168 90.269531 L 90.155273 50.336426 A 5.925 5.925 0 0 0 90.155273 41.964844 L 50.036133 1.8486328 A 5.918 5.918 0 0 0 46.000488 0.18603516 z " />
  </g>
</svg>
